<?xml version="1.0" encoding="utf-8"?>
<!-- Generator: Adobe Illustrator 22.1.0, SVG Export Plug-In . SVG Version: 6.00 Build 0)  -->
<svg version="1.1" id="Layer_1" xmlns="http://www.w3.org/2000/svg" xmlns:xlink="http://www.w3.org/1999/xlink" x="0px" y="0px"
	 viewBox="0 0 512 512" style="enable-background:new 0 0 512 512;" xml:space="preserve">
<style type="text/css">
	.st0{fill:#030303;}
	.st1{fill:url(#SVGID_1_);}
	.st2{fill:none;stroke:#231F20;stroke-width:0.25;stroke-miterlimit:10;}
	.st3{fill:#F0F0F0;}
	.st4{fill:#FFFFFF;}
	.st5{fill:#231F20;}
	.st6{fill:none;}
	.st7{fill:url(#SVGID_2_);}
	.st8{fill:url(#SVGID_3_);}
	.st9{fill:url(#SVGID_4_);}
	.st10{fill:url(#SVGID_5_);}
	.st11{fill:url(#SVGID_6_);}
	.st12{fill:url(#SVGID_7_);}
	.st13{fill:url(#SVGID_8_);}
	.st14{fill:url(#Rectangle_1_1_);}
	.st15{opacity:0;fill:#FFFFFF;}
	.st16{opacity:0.1;fill:#FFFFFF;}
	.st17{fill:url(#SVGID_9_);}
	.st18{fill:url(#SVGID_10_);}
	.st19{fill:url(#SVGID_11_);}
	.st20{fill:url(#SVGID_12_);}
	.st21{fill:url(#SVGID_13_);}
	.st22{fill:url(#SVGID_14_);}
	.st23{fill:url(#SVGID_15_);}
	.st24{fill:url(#SVGID_16_);}
	.st25{fill:url(#SVGID_17_);}
	.st26{fill:url(#SVGID_18_);}
	.st27{fill:url(#SVGID_19_);}
	.st28{fill:url(#SVGID_20_);}
	.st29{fill:url(#SVGID_21_);}
	.st30{fill:url(#SVGID_22_);}
	.st31{fill:url(#SVGID_23_);}
	.st32{fill:url(#SVGID_24_);}
	.st33{fill:url(#SVGID_25_);}
	.st34{fill:url(#SVGID_26_);}
	.st35{fill:url(#SVGID_27_);}
	.st36{fill:#CCCCCC;}
	.st37{fill:none;stroke:#4D4C4C;stroke-linejoin:round;stroke-miterlimit:10;stroke-dasharray:9;}
	.st38{fill:#4D4C4C;}
	.st39{fill:none;stroke:#EC1E27;stroke-width:0.5;stroke-linejoin:round;stroke-miterlimit:10;stroke-dasharray:2;}
	.st40{fill:none;stroke:#EC1E27;stroke-width:0.5;stroke-linejoin:round;}
	.st41{fill:none;stroke:#EC1E27;stroke-width:0.5;stroke-linejoin:round;stroke-dasharray:1.9783,1.9783;}
	.st42{fill:none;stroke:#EC1E27;stroke-width:0.5;stroke-linejoin:round;stroke-dasharray:2.0052,2.0052;}
	.st43{fill:none;stroke:#EC1E27;stroke-width:0.5;stroke-linejoin:round;stroke-dasharray:1.9804,1.9804;}
	.st44{fill:none;stroke:#EC1E27;stroke-width:0.5;stroke-linejoin:round;stroke-dasharray:1.9934,1.9934;}
	.st45{fill:none;stroke:#EC1E27;stroke-width:0.5;stroke-linejoin:round;stroke-dasharray:1.9936,1.9936;}
	.st46{fill:none;stroke:#EC1E27;stroke-width:0.5;stroke-linejoin:round;stroke-dasharray:1.9942,1.9942;}
	.st47{fill:none;stroke:#EC1E27;stroke-width:0.5;stroke-linejoin:round;stroke-dasharray:1.9932,1.9932;}
	.st48{fill:none;stroke:#EC1E27;stroke-width:0.5;stroke-linejoin:round;stroke-dasharray:1.9929,1.9929;}
	.st49{fill:none;stroke:#EC1E27;stroke-width:0.5;stroke-linejoin:round;stroke-dasharray:1.9928,1.9928;}
	.st50{fill:none;stroke:#EC1E27;stroke-width:0.5;stroke-linejoin:round;stroke-dasharray:1.9927,1.9927;}
	.st51{fill:none;stroke:#EC1E27;stroke-width:0.5;stroke-linejoin:round;stroke-dasharray:1.9926,1.9926;}
	.st52{fill:none;stroke:#EC1E27;stroke-width:0.5;stroke-linejoin:round;stroke-dasharray:2.0104,2.0104;}
	.st53{fill:none;stroke:#EC1E27;stroke-width:0.5;stroke-linejoin:round;stroke-dasharray:1.9923,1.9923;}
	.st54{fill:none;stroke:#EC1E27;stroke-width:0.5;stroke-linejoin:round;stroke-dasharray:1.978,1.978;}
	.st55{fill:none;stroke:#EC1E27;stroke-width:0.5;stroke-linejoin:round;stroke-dasharray:1.9699,1.9699;}
	.st56{fill:none;stroke:#EC1E27;stroke-width:0.5;stroke-linejoin:round;stroke-dasharray:1.9791,1.9791;}
	.st57{fill:none;stroke:#EC1E27;stroke-width:0.5;stroke-linejoin:round;stroke-dasharray:1.9684,1.9684;}
	.st58{fill:none;stroke:#EC1E27;stroke-width:0.5;stroke-linejoin:round;stroke-dasharray:1.9754,1.9754;}
	.st59{fill:none;stroke:#EC1E27;stroke-width:0.5;stroke-linejoin:round;stroke-dasharray:2.0004,2.0004;}
	.st60{fill:none;stroke:#EC1E27;stroke-width:0.5;stroke-linejoin:round;stroke-dasharray:1.9951,1.9951;}
	.st61{fill:none;stroke:#EC1E27;stroke-width:0.5;stroke-linejoin:round;stroke-dasharray:2.0263,2.0263;}
	.st62{fill:none;stroke:#EC1E27;stroke-width:0.5;stroke-linejoin:round;stroke-dasharray:2.0298,2.0298;}
	.st63{fill:none;stroke:#EC1E27;stroke-width:0.5;stroke-linejoin:round;stroke-dasharray:2.0568,2.0568;}
	.st64{fill:none;stroke:#EC1E27;stroke-width:0.5;stroke-linejoin:round;stroke-dasharray:2.1698,2.1698;}
	.st65{fill:none;stroke:#EC1E27;stroke-width:0.5;stroke-linejoin:round;stroke-dasharray:2.0359,2.0359;}
	.st66{fill:none;stroke:#EC1E27;stroke-width:0.5;stroke-linejoin:round;stroke-dasharray:2.0331,2.0331;}
	.st67{fill:none;stroke:#EC1E27;stroke-width:0.5;stroke-linejoin:round;stroke-dasharray:2.0185,2.0185;}
	.st68{fill:none;stroke:#EC1E27;stroke-width:0.5;stroke-linejoin:round;stroke-dasharray:2.0039,2.0039;}
	.st69{fill:none;stroke:#EC1E27;stroke-width:0.5;stroke-linejoin:round;stroke-dasharray:2.02,2.02;}
	.st70{fill:none;stroke:#EC1E27;stroke-width:0.5;stroke-linejoin:round;stroke-dasharray:2.0205,2.0205;}
	.st71{fill:none;stroke:#EC1E27;stroke-width:0.5;stroke-linejoin:round;stroke-dasharray:2.0194,2.0194;}
	.st72{fill:none;stroke:#EC1E27;stroke-width:0.5;stroke-linejoin:round;stroke-dasharray:1.9794,1.9794;}
	.st73{fill:none;stroke:#EC1E27;stroke-width:0.5;stroke-linejoin:round;stroke-dasharray:1.9955,1.9955;}
	.st74{fill:none;stroke:#EC1E27;stroke-width:0.5;stroke-linejoin:round;stroke-dasharray:2.035,2.035;}
	.st75{fill:url(#SVGID_28_);}
	.st76{fill:url(#SVGID_29_);}
	.st77{opacity:0.57;}
	.st78{fill:none;stroke:#FF55FF;stroke-miterlimit:10;}
	.st79{fill:url(#SVGID_30_);}
	.st80{fill:url(#SVGID_31_);}
	.st81{fill:url(#SVGID_32_);}
</style>
<linearGradient id="SVGID_1_" gradientUnits="userSpaceOnUse" x1="-115.3615" y1="599.8532" x2="571.6946" y2="-36.3099">
	<stop  offset="0" style="stop-color:#584BDD"/>
	<stop  offset="1" style="stop-color:#B755FF"/>
</linearGradient>
<path class="st1" d="M432.1,512H79.9C35.8,512,0,476.2,0,432.1V79.9C0,35.8,35.8,0,79.9,0h352.3C476.2,0,512,35.8,512,79.9v352.3
	C512,476.2,476.2,512,432.1,512z"/>
<g>
	<path class="st4" d="M134.4,251.3l-27.3,2.4l5.1-6.1c0,0-0.8-15-1.8-16.2c-1.1-1.1-4.4-1.6-4.4-1.6s12.4-17,50.4-25.8
		c0,0-2.6,2.9-3.5,5.4c0,0,13.1-15.4,31.7-12.6c0,0,7.1,0.6,17.4,6.3c0,0-3.4-4.6-7.1-6c0,0,21.9-1.7,36.8,0.4
		c14.9,2.1,126.1-2.4,156.9-9.5c0,0,12-3.6,17.7-4.3c5.6-0.7,11.2,0.3,11.2,0.3s-5.2,7.1-1.9,14.1c3.2,7.1,9.8,14.9,6.7,29.9
		c0,0-6.3-16.5-22.7-21.2c0,0,0.3-6.6,10.9-4.9c0,0-2.8-6.2-7.1-6.7s-19.4,2.6-29.3-1.5c0,0,9.7,5.4,13,10.2c0,0-18.3-9.4-35.8-4.8
		c-17.6,4.6-24.4,18.6-27,24.8c0,0-1.1-15.7,15.6-27c0,0-8.4,3.2-10.3,4.8c-2.4,2-104.8,6.8-118,9.1c0,0,4.4,7.9,5.3,14.6
		c0,0-12-23-36.2-22.3c-24.2,0.8-34.2,21.2-34.2,21.2s-0.6-2.8,0.9-6c0,0-22.7,3.5-31.8,9.9c0,0,4,4.2,13.6,6.5
		c0,0-7.8-0.4-13.4-2.1c0,0,0.4,12.6,2.3,15.1S134.4,251.3,134.4,251.3z"/>
	<path class="st4" d="M217.8,214.8c0,0,10.9,20.8,13.4,28.3c0,0,54.5-4.6,87-7.3c0,0-78.6,0.8-82-0.2
		C232.7,234.7,225.8,223.6,217.8,214.8z"/>
	<path class="st4" d="M334.3,170.4c-11.3-2.2-52.9-3.4-66.4,1.1c-13.5,4.6-45.6,21.7-45.6,21.7s9.7,0.5,11.9,0
		c2.2-0.5,31.4-15.9,40.1-18.6c8.7-2.8,46.7-0.9,48.6-0.8c1.8,0.2,0.3,11.3-1,14c-1.2,2.6-20.8,4.7-22.6,4.9
		c0.8-0.1,5.3-0.3,29.4-0.9c27.5-0.6,61.2-7.4,61.2-7.4S345.6,172.5,334.3,170.4z M326.4,187.9c1.7-4.9,2.3-13.5,2.3-13.5
		c24.2,3.3,27.1,7.4,27.1,7.4C346.1,188.1,326.4,187.9,326.4,187.9z"/>
	<path class="st4" d="M250.8,187.9c-2.6-0.2-11.9,6-11.9,6l-0.5,0.4h18.2C256.6,192.6,253.4,188.2,250.8,187.9z M244.7,192.3
		c0,0,2.9-2.2,5-2.4c2.1-0.2,3.5,2.4,3.5,2.4H244.7z"/>
	<path class="st4" d="M414.2,174.9c-5.2-0.9-10.2-1.6-14.2-2.1c0.3-7.1,0.5-12.6,0.5-12.6c-58.4-35.2-113-38.3-132.6-38.1
		c-1.5,0-2.7,0-3.8,0.1c-1.1,0-2.3-0.1-3.8-0.1c-19.6-0.2-74.2,3-132.6,38.1c0,0,1.1,32.7,2.7,41.3l-15.4,4.8c0,0-2.2-45.4,0-54.4
		c0,0,59.5-42.8,145.3-44.5c1.3,0,2.5,0,3.8,0c1.3,0,2.5,0,3.8,0c85.9,1.7,145.3,44.5,145.3,44.5C414.1,155.7,414.3,165,414.2,174.9
		z"/>
	<polygon class="st4" points="427.6,240.8 102.8,276.5 102.8,262.2 	"/>
	<path class="st4" d="M128.1,345.3l56.9-2.2c0,0,38,39.7,73.1,61.4c0,0,52.1-35.4,84.4-72.6l48.6-2.4v-14.8L128.1,345.3z
		 M258.5,387.4c0,0-37.2-28.5-53.9-45.7l116.9-8.3C321.5,333.4,270.2,383.6,258.5,387.4z"/>
	<g>
		<g>
			<polygon class="st4" points="215.2,275.3 204.2,325.4 187.7,327.4 191.3,310.9 155.7,315.2 166.9,318.5 164.3,330.2 147.7,332.2 
				158.6,282.1 175.3,280.1 170.9,299.9 194.3,297.1 198.6,277.3 			"/>
			<path class="st4" d="M260,269.9l16.5-2l-8.9,40.6c-1.2,5.7-5.9,9.9-11.7,10.6l-35.3,4.2c-5.7,0.7-10.3-4.4-9.1-10l8.4-38.7
				l16.6-2l-3.9,17.9l-4.3,19.6c0,0.2,0.1,0.4,0.3,0.4l22.7-2.7c0.1,0,0.2-0.1,0.3-0.2L260,269.9z"/>
			<path class="st4" d="M369.1,256.8l-27.5,3.3l-10.9,50.1l38.9-4.7c5.5-0.7,10-4.8,11.2-10.2l5.1-23.3
				C388.9,257.4,375.6,256.3,369.1,256.8z M363.3,294.4l-13.1,1.6l4.6-20.9l-11.8-3.3l23.5-2.8c2.5-0.3,4.5,1.9,3.9,4.3l-4,18.4
				C366,293.1,364.8,294.2,363.3,294.4z"/>
		</g>
		<path class="st4" d="M325.9,262.9l-44.3,4.7l-11.6,49.9l17-1.8l3.8-16.5l7.3-0.8l11.8,14.8l18.1-1.9l-11.8-14.8l2.7-0.3
			c6.3-0.7,11.4-5.2,12.9-11.4l2.8-12.1C335.9,267.3,331.4,262.3,325.9,262.9z M314.7,285.4l-21.2,2.2l1.1-5l-10.3-3.7l32.5-3.3
			c0.5,0,0.8,0.4,0.7,0.8l-1.9,8.2C315.5,285.1,315.1,285.4,314.7,285.4z"/>
	</g>
</g>
</svg>
